<?xml version="1.0" standalone="no"?>
<!DOCTYPE svg PUBLIC "-//W3C//DTD SVG 20010904//EN"
 "http://www.w3.org/TR/2001/REC-SVG-20010904/DTD/svg10.dtd">
<svg version="1.0" xmlns="http://www.w3.org/2000/svg"
 width="400.000000pt" height="400.000000pt" viewBox="150 150 200 200"
 preserveAspectRatio="xMidYMid meet">

<g transform="translate(0.000000,500.000000) scale(0.100000,-0.100000)"
fill="#FFFCF9" stroke="2px">
<path d="M2297 2933 c-4 -3 -7 -136 -7 -295 l0 -288 60 0 60 0 0 56 0 57 40
-46 c51 -57 111 -82 180 -74 27 3 59 11 70 17 20 11 20 11 0 49 -19 38 -20 39
-64 34 -38 -5 -48 -2 -70 20 -18 18 -26 37 -26 62 0 25 8 44 26 62 22 22 32
25 70 20 44 -5 45 -4 64 34 20 38 20 38 0 49 -34 18 -114 23 -154 10 -44 -14
-92 -53 -117 -95 -19 -30 -19 -30 -19 153 l0 182 -53 0 c-30 0 -57 -3 -60 -7z"/>
<path d="M2180 2907 c-56 -28 -48 -110 14 -130 68 -22 117 77 60 122 -31 24
-40 25 -74 8z"/>
<path d="M1690 2765 c0 -63 -1 -65 -25 -65 -23 0 -25 -4 -25 -45 0 -41 2 -45
25 -45 25 0 25 -1 26 -82 0 -103 14 -146 55 -170 28 -16 46 -18 143 -12 l111
7 0 101 c0 133 10 150 86 144 33 -3 55 0 58 6 2 6 5 -49 5 -121 l1 -133 60 0
60 0 0 175 0 175 -47 0 c-27 0 -70 3 -98 6 -43 5 -55 2 -87 -20 -36 -24 -38
-24 -38 -6 0 19 -7 20 -95 20 l-95 0 0 65 0 65 -60 0 -60 0 0 -65z m188 -235
l3 -76 -28 -2 c-36 -3 -43 11 -43 91 l0 68 33 -3 32 -3 3 -75z"/>
<path d="M2795 2696 c-180 -80 -135 -338 61 -354 66 -5 129 16 169 58 l28 29
-46 22 c-44 21 -47 22 -65 6 -11 -10 -35 -17 -60 -17 -32 0 -45 6 -61 26 -12
15 -21 31 -21 35 0 5 59 9 130 9 130 0 130 0 130 24 0 35 -20 88 -44 115 -48
54 -154 77 -221 47z m133 -93 l14 -23 -66 0 c-36 0 -66 3 -66 7 0 3 8 15 17
25 23 26 81 21 101 -9z"/>
<path d="M3220 2487 c-14 -7 -31 -25 -38 -40 -36 -76 64 -142 123 -82 31 30
32 66 3 99 -29 31 -57 39 -88 23z"/>
</g>
</svg>
